<svg width="24" height="25" viewBox="0 0 24 25" fill="none" xmlns="http://www.w3.org/2000/svg">
<g clip-path="url(#clip0_1_3991)">
<path d="M2.73633 18.2886C1.95605 18.2886 1.30029 17.7075 1.30029 16.6533V6.9248C1.30029 5.87061 1.94775 5.28955 2.72803 5.28955C3.10986 5.28955 3.44189 5.38916 3.81543 5.60498L11.9087 10.353C12.4316 10.6519 12.7637 11.0005 12.8799 11.4404V6.9248C12.8799 5.87061 13.5273 5.28955 14.2993 5.28955C14.6812 5.28955 15.0132 5.38916 15.3867 5.60498L23.48 10.353C24.1274 10.7266 24.4844 11.1582 24.4844 11.7808C24.4844 12.4033 24.1108 12.8599 23.48 13.2334L15.3867 17.9731C15.0215 18.189 14.6895 18.2886 14.3076 18.2886C13.5356 18.2886 12.8799 17.7075 12.8799 16.6533V12.1211C12.7637 12.5776 12.415 12.9346 11.9087 13.2334L3.81543 17.9731C3.4502 18.189 3.10986 18.2886 2.73633 18.2886Z" fill="white" fill-opacity="0.9"/>
</g>
<defs>
<clipPath id="clip0_1_3991">
<rect width="24" height="24" fill="white" transform="translate(0 0.5)"/>
</clipPath>
</defs>
</svg>
