<svg width="24" height="25" viewBox="0 0 24 25" fill="none" xmlns="http://www.w3.org/2000/svg">
<path d="M5.41113 8.17822C4.72217 8.17822 4.14941 7.61377 4.14941 6.9165C4.14941 6.21924 4.72217 5.65479 5.41113 5.65479C6.1084 5.65479 6.67285 6.21924 6.67285 6.9165C6.67285 7.61377 6.1084 8.17822 5.41113 8.17822ZM9.3623 7.81299C8.85596 7.81299 8.45752 7.41455 8.45752 6.9165C8.45752 6.41016 8.85596 6.02002 9.3623 6.02002H19.9458C20.4521 6.02002 20.8423 6.41846 20.8423 6.9165C20.8423 7.42285 20.4521 7.81299 19.9458 7.81299H9.3623ZM5.41113 13.1006C4.72217 13.1006 4.14941 12.5361 4.14941 11.8389C4.14941 11.1416 4.72217 10.5771 5.41113 10.5771C6.1084 10.5771 6.67285 11.1416 6.67285 11.8389C6.67285 12.5361 6.1084 13.1006 5.41113 13.1006ZM9.3623 12.7354C8.85596 12.7354 8.45752 12.3369 8.45752 11.8389C8.45752 11.3325 8.85596 10.9424 9.3623 10.9424H19.9458C20.4521 10.9424 20.8423 11.3408 20.8423 11.8389C20.8423 12.3452 20.4521 12.7354 19.9458 12.7354H9.3623ZM5.41113 18.0229C4.72217 18.0229 4.14941 17.4585 4.14941 16.7612C4.14941 16.064 4.72217 15.4995 5.41113 15.4995C6.1084 15.4995 6.67285 16.064 6.67285 16.7612C6.67285 17.4585 6.1084 18.0229 5.41113 18.0229ZM9.3623 17.6577C8.85596 17.6577 8.45752 17.2593 8.45752 16.7612C8.45752 16.2549 8.85596 15.8647 9.3623 15.8647H19.9458C20.4521 15.8647 20.8423 16.2632 20.8423 16.7612C20.8423 17.2676 20.4521 17.6577 19.9458 17.6577H9.3623Z" fill="white" fill-opacity="0.9"/>
</svg>
