<svg width="24" height="25" viewBox="0 0 24 25" fill="none" xmlns="http://www.w3.org/2000/svg">
<path d="M8.37256 20.7539C7.63379 20.7539 7.18555 20.2476 7.18555 19.4258V17.6328H6.93652C4.74512 17.6328 3.24268 16.1968 3.24268 13.8228V7.63037C3.24268 5.25635 4.66211 3.82031 7.05273 3.82031H16.939C19.3296 3.82031 20.749 5.25635 20.749 7.63037V13.8228C20.749 16.1968 19.3296 17.6328 16.939 17.6328H12.5811L9.9165 19.9736C9.29395 20.5215 8.88721 20.7539 8.37256 20.7539ZM8.8374 18.6206L11.3027 16.1968C11.6763 15.8149 11.917 15.7236 12.4482 15.7236H16.8311C18.1758 15.7236 18.8398 15.043 18.8398 13.7148V7.72998C18.8398 6.41016 18.1758 5.72949 16.8311 5.72949H7.16064C5.81592 5.72949 5.16016 6.41016 5.16016 7.72998V13.7148C5.16016 15.043 5.81592 15.7236 7.16064 15.7236H8.13184C8.59668 15.7236 8.8374 15.9146 8.8374 16.4292V18.6206ZM8.14014 9.92969C8.14014 8.9502 8.87061 8.25293 9.8501 8.25293C10.9707 8.25293 11.6763 9.14941 11.6763 10.2949C11.6763 12.1045 10.1655 13.167 9.27734 13.167C9.03662 13.167 8.854 13.0259 8.854 12.8018C8.854 12.6025 8.96191 12.4697 9.21094 12.4116C9.875 12.2539 10.4561 11.7974 10.6719 11.208H10.5557C10.3398 11.4736 9.99951 11.5649 9.61768 11.5649C8.72949 11.5649 8.14014 10.8677 8.14014 9.92969ZM12.4233 9.92969C12.4233 8.9502 13.1538 8.25293 14.1333 8.25293C15.2456 8.25293 15.9595 9.14941 15.9595 10.2949C15.9595 12.1045 14.4487 13.167 13.5605 13.167C13.3198 13.167 13.1372 13.0259 13.1372 12.8018C13.1372 12.6025 13.2451 12.4697 13.4941 12.4116C14.1582 12.2539 14.7393 11.7974 14.9551 11.208H14.8389C14.623 11.4736 14.2827 11.5649 13.9009 11.5649C13.0127 11.5649 12.4233 10.8677 12.4233 9.92969Z" fill="white" fill-opacity="0.9"/>
</svg>
