<svg width="24" height="24" viewBox="0 0 24 24" fill="none" xmlns="http://www.w3.org/2000/svg">
<path d="M12 2.04199C13.627 2.04199 14.9385 3.27051 14.9385 5.09668V10.127C14.9385 10.1851 14.9302 10.2432 14.9219 10.293L9.21094 4.58203V4.40771C9.48486 2.97998 10.5889 2.04199 12 2.04199ZM18.3999 17.0747L5.30127 4.00098C5.05225 3.75195 5.05225 3.32031 5.30127 3.07959C5.55859 2.82227 5.98193 2.82227 6.23096 3.07959L19.3213 16.1533C19.5786 16.4106 19.5703 16.8174 19.3213 17.0747C19.0806 17.332 18.6572 17.332 18.3999 17.0747ZM5.55859 10.5918V9.08936C5.55859 8.57471 5.98193 8.18457 6.49658 8.18457C7.01953 8.18457 7.44287 8.57471 7.44287 9.08936V10.5337C7.44287 13.2065 9.33545 14.9414 12 14.9414C12.8467 14.9414 13.6187 14.7588 14.2744 14.4268L15.6274 15.7881C14.8389 16.2612 13.9092 16.5601 12.8882 16.6763V17.9961H15.7354C16.2417 17.9961 16.6816 18.4028 16.6816 18.9175C16.6816 19.4238 16.2417 19.8472 15.7354 19.8472H8.27295C7.7583 19.8472 7.31836 19.4238 7.31836 18.9175C7.31836 18.4028 7.7583 17.9961 8.27295 17.9961H11.1118V16.6763C7.87451 16.3276 5.55859 14.0283 5.55859 10.5918ZM16.3745 11.7456C16.4907 11.3721 16.5571 10.9653 16.5571 10.5337V9.08936C16.5571 8.57471 16.9805 8.18457 17.5034 8.18457C18.0181 8.18457 18.4414 8.57471 18.4414 9.08936V10.5918C18.4414 11.5796 18.2505 12.4761 17.8936 13.2563L16.3745 11.7456ZM12 13.3975C10.373 13.3975 9.05322 12.1772 9.05322 10.3511V9.20557L13.0376 13.1982C12.7222 13.3228 12.3652 13.3975 12 13.3975Z" fill="white" fill-opacity="0.9"/>
</svg>
