<svg width="24" height="25" viewBox="0 0 24 25" fill="none" xmlns="http://www.w3.org/2000/svg">
<path d="M8.40771 18.5293C7.58594 18.5293 7.1709 18.1143 7.1792 17.3008V6.36865C7.1792 5.55518 7.59424 5.14014 8.40771 5.14014H10.3252C11.1387 5.15674 11.5537 5.55518 11.5537 6.36865V17.3008C11.5537 18.1143 11.1387 18.5293 10.3252 18.5293H8.40771ZM14.6748 18.5293C13.8447 18.5293 13.4463 18.1143 13.4463 17.3008V6.36865C13.4463 5.55518 13.8613 5.14014 14.6748 5.14014H16.584C17.3975 5.14014 17.8125 5.55518 17.8125 6.36865V17.3008C17.8125 18.1143 17.3975 18.5293 16.584 18.5293H14.6748Z" fill="white" fill-opacity="0.9"/>
</svg>
