<svg width="24" height="25" viewBox="0 0 24 25" fill="none" xmlns="http://www.w3.org/2000/svg">
<g clip-path="url(#clip0_1_3928)">
<path d="M9.67578 18.2886C9.30225 18.2886 8.97021 18.189 8.60498 17.9731L0.511719 13.2334C-0.119141 12.8599 -0.500977 12.4033 -0.500977 11.7808C-0.500977 11.1582 -0.135742 10.7266 0.511719 10.353L8.60498 5.60498C8.97852 5.38916 9.31055 5.28955 9.68408 5.28955C10.4644 5.28955 11.1118 5.87061 11.1118 6.9248V11.4404C11.2197 11.0005 11.5601 10.6519 12.083 10.353L20.1763 5.60498C20.5498 5.38916 20.8818 5.28955 21.2554 5.28955C22.0356 5.28955 22.6831 5.87061 22.6831 6.9248V16.6533C22.6831 17.7075 22.0273 18.2886 21.2554 18.2886C20.8735 18.2886 20.5415 18.189 20.1763 17.9731L12.083 13.2334C11.5684 12.9346 11.228 12.5776 11.1118 12.1211V16.6533C11.1118 17.7075 10.4561 18.2886 9.67578 18.2886Z" fill="white" fill-opacity="0.9"/>
</g>
<defs>
<clipPath id="clip0_1_3928">
<rect width="24" height="24" fill="white" transform="translate(0 0.5)"/>
</clipPath>
</defs>
</svg>
