<svg width="24" height="24" viewBox="0 0 24 24" fill="none" xmlns="http://www.w3.org/2000/svg">
<path d="M6.58154 13.1152C5.60205 13.1152 4.79688 12.3018 4.79688 11.3389C4.79688 10.3511 5.60205 9.5625 6.58154 9.5625C7.59424 9.5625 8.37451 10.3345 8.37451 11.3389C8.37451 12.3018 7.55273 13.1152 6.58154 13.1152ZM12.4917 13.1152C11.5205 13.1152 10.7153 12.3018 10.7153 11.3389C10.7153 10.3511 11.5205 9.5625 12.4917 9.5625C13.5044 9.5625 14.2681 10.3345 14.2681 11.3389C14.2681 12.3018 13.4546 13.1152 12.4917 13.1152ZM18.4102 13.1152C17.4224 13.1152 16.6172 12.3018 16.6172 11.3389C16.6172 10.3511 17.4224 9.5625 18.4102 9.5625C19.4146 9.5625 20.1948 10.3345 20.1948 11.3389C20.1948 12.3018 19.373 13.1152 18.4102 13.1152Z" fill="white" fill-opacity="0.9"/>
</svg>
