<svg width="24" height="24" viewBox="0 0 24 24" fill="none" xmlns="http://www.w3.org/2000/svg">
<g clip-path="url(#clip0_1_3808)">
<path d="M5.86768 18.8013C4.09961 18.8013 3.13672 17.855 3.13672 16.0952V6.58252C3.13672 4.82275 4.09961 3.86816 5.86768 3.86816H19.124C20.9004 3.86816 21.855 4.82275 21.855 6.58252V7.54541C21.2241 7.27148 20.5518 7.23828 19.9375 7.37109V6.79834C19.9375 6.10938 19.5806 5.78564 18.9331 5.78564H6.05859C5.40283 5.78564 5.0542 6.10938 5.0542 6.79834V15.8711C5.0542 16.5684 5.40283 16.8921 6.05859 16.8921H14.6748C14.4175 17.5229 14.3511 18.2451 14.6001 18.8013H5.86768ZM6.82227 15.647C6.48193 15.647 6.29932 15.4561 6.29932 15.1074V7.57031C6.29932 7.22168 6.48193 7.03076 6.82227 7.03076H18.1694C18.5098 7.03076 18.6924 7.22168 18.6924 7.57031V7.92725C17.6548 8.4751 16.9243 9.65381 16.9243 10.9902C16.9243 12.0693 17.3726 13.0405 18.0781 13.6963C16.9243 14.0698 15.9531 14.7837 15.4385 15.647H6.82227ZM20.4854 13.5054C19.2153 13.5054 18.1777 12.3931 18.1777 10.9819C18.1694 9.604 19.2236 8.5083 20.4854 8.5083C21.7388 8.5083 22.7847 9.5957 22.7847 10.9736C22.7847 12.3931 21.7471 13.5054 20.4854 13.5054ZM16.75 18.8013C16.0776 18.8013 15.6709 18.4775 15.6709 17.938C15.6709 16.4854 17.5469 14.5015 20.4854 14.5015C23.4155 14.5015 25.2832 16.4854 25.2832 17.938C25.2832 18.4775 24.8765 18.8013 24.2041 18.8013H16.75Z" fill="white" fill-opacity="0.9"/>
</g>
<defs>
<clipPath id="clip0_1_3808">
<rect width="24" height="24" fill="white"/>
</clipPath>
</defs>
</svg>
