<svg width="25" height="24" viewBox="0 0 25 24" fill="none" xmlns="http://www.w3.org/2000/svg">
<path d="M5.91748 17.9131C4.09961 17.9131 3.07861 17.0166 3.07861 15.2568V7.51221C3.07861 5.75244 4.14111 4.74805 5.91748 4.74805H14.0273C15.8452 4.74805 16.8164 5.75244 16.8164 7.50391V15.1572C16.8164 16.9087 15.8037 17.9131 13.9775 17.9131H5.91748ZM18.0615 14.0947V8.64941L20.5601 6.51611C20.9419 6.18408 21.3154 5.96826 21.7056 5.96826C22.3779 5.96826 22.8511 6.44141 22.8511 7.18018V15.5723C22.8511 16.3027 22.3779 16.7759 21.7056 16.7759C21.3237 16.7759 20.9419 16.5601 20.5601 16.228L18.0615 14.0947Z" fill="white" fill-opacity="0.9"/>
</svg>
