<svg width="24" height="24" viewBox="0 0 24 24" fill="none" xmlns="http://www.w3.org/2000/svg">
<path d="M5.41748 17.9131C3.59961 17.9131 2.57861 17.0166 2.57861 15.2568V7.51221C2.57861 5.75244 3.64111 4.74805 5.41748 4.74805H13.5273C15.3452 4.74805 16.3164 5.75244 16.3164 7.50391V15.1572C16.3164 16.9087 15.3037 17.9131 13.4775 17.9131H5.41748ZM17.5615 14.0947V8.64941L20.0601 6.51611C20.4419 6.18408 20.8154 5.96826 21.2056 5.96826C21.8779 5.96826 22.3511 6.44141 22.3511 7.18018V15.5723C22.3511 16.3027 21.8779 16.7759 21.2056 16.7759C20.8237 16.7759 20.4419 16.5601 20.0601 16.228L17.5615 14.0947Z" fill="#131111"/>
</svg>
