<svg width="24" height="25" viewBox="0 0 24 25" fill="none" xmlns="http://www.w3.org/2000/svg">
<g clip-path="url(#clip0_1_3846)">
<path d="M20.5518 19.8574C20.0869 19.5669 20.0122 18.9941 20.3359 18.4795C21.5146 16.6201 22.2368 14.3291 22.2368 11.8389C22.2368 9.34863 21.5146 7.07422 20.3359 5.20654C20.0122 4.68359 20.0869 4.11084 20.5518 3.82861C20.9917 3.55469 21.5479 3.6792 21.8384 4.13574C23.2246 6.31885 24.0713 8.9585 24.0713 11.8389C24.0713 14.7275 23.2412 17.3672 21.8384 19.542C21.5479 19.9985 20.9917 20.123 20.5518 19.8574ZM9.69434 18.9941C9.23779 18.9941 8.88086 18.8198 8.44092 18.4048L5.23682 15.3916C5.18701 15.3501 5.13721 15.3335 5.0791 15.3335H2.8877C1.61768 15.3335 0.928711 14.6279 0.928711 13.2998V10.3945C0.928711 9.06641 1.61768 8.35254 2.8877 8.35254H5.0791C5.13721 8.35254 5.19531 8.32764 5.23682 8.28613L8.44092 5.29785C8.91406 4.85791 9.24609 4.68359 9.68604 4.68359C10.375 4.68359 10.8813 5.21484 10.8813 5.88721V17.8154C10.8813 18.4878 10.375 18.9941 9.69434 18.9941ZM17.1152 17.6743C16.6338 17.3838 16.5757 16.8027 16.8994 16.2798C17.7046 15.043 18.1777 13.4741 18.1777 11.8306C18.1777 10.187 17.7129 8.61816 16.8994 7.38135C16.5674 6.8584 16.6338 6.27734 17.1152 5.98682C17.5469 5.72949 18.0864 5.8291 18.3687 6.26904C19.4229 7.78809 20.0122 9.77197 20.0122 11.8306C20.0122 13.8809 19.4146 15.8647 18.3687 17.3921C18.0864 17.832 17.5469 17.9316 17.1152 17.6743ZM13.6621 15.5078C13.1973 15.209 13.106 14.6528 13.4795 14.0552C13.8779 13.4409 14.1104 12.6606 14.1104 11.8306C14.1104 11.0005 13.8862 10.2119 13.4795 9.60596C13.0977 9.0083 13.1973 8.45215 13.6621 8.16162C14.0771 7.8877 14.6084 7.9873 14.8906 8.37744C15.5547 9.29883 15.9531 10.5356 15.9531 11.8306C15.9531 13.1255 15.5547 14.3623 14.8906 15.2754C14.6084 15.6655 14.0771 15.7651 13.6621 15.5078Z" fill="white" fill-opacity="0.9"/>
</g>
<defs>
<clipPath id="clip0_1_3846">
<rect width="24" height="24" fill="white" transform="translate(0 0.5)"/>
</clipPath>
</defs>
</svg>
