<svg width="24" height="24" viewBox="0 0 24 24" fill="none" xmlns="http://www.w3.org/2000/svg">
<path d="M6.36572 17.4814C5.93408 17.0498 5.95068 16.311 6.34912 15.9043L10.9146 11.3389L6.34912 6.78174C5.95068 6.375 5.93408 5.63623 6.36572 5.20459C6.78906 4.77295 7.53613 4.78955 7.93457 5.19629L12.5 9.75342L17.0571 5.19629C17.4805 4.78125 18.1943 4.78125 18.6343 5.21289C19.0659 5.63623 19.0659 6.3667 18.6426 6.78174L14.0854 11.3389L18.6426 15.9043C19.0659 16.3193 19.0576 17.0415 18.6343 17.4731C18.2026 17.9048 17.4805 17.9048 17.0571 17.4897L12.5 12.9243L7.93457 17.4897C7.53613 17.8965 6.79736 17.9048 6.36572 17.4814Z" fill="white" fill-opacity="0.9"/>
</svg>
